<svg 
 xmlns="http://www.w3.org/2000/svg"
 xmlns:xlink="http://www.w3.org/1999/xlink"
 width="20px" height="20px">
<path fill-rule="evenodd"  fill="rgb(255, 255, 255)"
 d="M18.949,2.105 C19.826,2.105 19.1000,2.518 19.1000,3.158 L20.011,9.288 C20.011,9.898 19.562,11.521 18.949,11.579 L7.123,11.759 C6.159,11.875 6.248,13.684 7.388,13.684 L17.898,13.684 C20.776,13.684 20.234,15.789 18.949,15.789 L6.337,15.789 C3.766,15.789 3.411,12.195 5.428,10.712 L6.450,9.956 L2.827,2.079 L1.045,2.079 C-0.329,2.079 -0.329,-0.014 1.045,-0.014 L3.120,-0.014 C3.560,-0.014 5.286,-0.000 5.286,-0.000 L5.286,2.105 L18.949,2.105 ZM6.129,18.212 C6.129,19.200 5.341,20.014 4.288,20.014 C3.295,20.014 2.477,19.200 2.477,18.212 C2.477,17.194 3.295,16.381 4.288,16.381 C5.341,16.381 6.129,17.194 6.129,18.212 ZM7.182,6.294 L9.490,6.316 L9.490,4.317 L6.275,4.317 L7.182,6.294 ZM10.541,9.474 L10.541,7.368 L7.620,7.340 L8.439,9.474 L10.541,9.474 ZM10.541,4.317 L10.541,6.316 L13.694,6.316 L13.582,4.317 L10.541,4.317 ZM14.745,9.474 L14.745,7.368 L11.592,7.368 L11.592,9.474 L14.745,9.474 ZM17.898,4.210 L14.745,4.210 L14.745,6.316 L17.898,6.316 L17.898,4.210 ZM18.491,18.212 C18.491,19.200 17.702,20.014 16.679,20.014 C15.657,20.014 14.838,19.200 14.838,18.212 C14.838,17.194 15.657,16.381 16.679,16.381 C17.702,16.381 18.491,17.194 18.491,18.212 ZM18.949,7.368 L15.796,7.368 L15.796,9.474 L18.949,9.474 L18.949,7.368 Z"/>
</svg>