<svg 
 xmlns="http://www.w3.org/2000/svg"
 xmlns:xlink="http://www.w3.org/1999/xlink"
 width="13px" height="18px">
<path fill-rule="evenodd"  opacity="0.502" fill="rgb(0, 0, 0)"
 d="M0.001,17.1000 L0.001,12.384 L0.001,10.278 L0.001,6.720 L0.001,5.365 L0.001,5.316 L3.520,5.316 C3.044,5.080 2.612,4.799 2.309,4.488 C1.769,3.933 1.432,3.318 1.334,2.707 C1.214,1.962 1.444,1.267 1.998,0.698 C3.005,-0.337 4.491,-0.213 5.690,1.017 C6.261,1.604 6.749,2.657 6.999,3.648 C7.188,2.948 7.487,2.233 7.987,1.719 C9.186,0.489 10.672,0.365 11.679,1.400 C12.233,1.969 12.463,2.664 12.343,3.409 C12.245,4.019 11.908,4.635 11.367,5.190 C11.325,5.233 11.270,5.274 11.223,5.316 L12.992,5.316 L12.992,5.365 L12.992,6.720 L12.992,10.278 L12.992,12.384 L12.992,17.1000 L0.001,17.1000 ZM4.723,2.010 C4.333,1.609 3.931,1.388 3.590,1.388 C3.368,1.388 3.163,1.487 2.966,1.690 C2.726,1.936 2.637,2.186 2.683,2.478 C2.734,2.793 2.945,3.154 3.276,3.495 C3.772,4.003 4.998,4.485 5.798,4.592 C5.703,3.850 5.285,2.587 4.723,2.010 ZM10.712,2.393 C10.514,2.189 10.310,2.090 10.087,2.090 C9.747,2.090 9.344,2.311 8.954,2.712 C8.395,3.286 8.181,4.482 8.083,5.261 C8.874,5.108 9.946,4.664 10.401,4.197 C10.733,3.856 10.943,3.495 10.994,3.180 C11.041,2.888 10.951,2.638 10.712,2.393 ZM7.522,16.596 L11.624,16.596 L11.624,12.384 L7.522,12.384 L7.522,16.596 ZM7.522,10.278 L11.624,10.278 L11.624,6.768 L7.522,6.768 L7.522,10.278 ZM1.369,16.596 L5.471,16.596 L5.471,12.384 L1.369,12.384 L1.369,16.596 ZM1.369,10.278 L5.471,10.278 L5.471,6.768 L1.369,6.768 L1.369,10.278 Z"/>
</svg>