<svg 
 xmlns="http://www.w3.org/2000/svg"
 xmlns:xlink="http://www.w3.org/1999/xlink"
 width="25px" height="23px">
<path fill-rule="evenodd"  fill="rgb(153, 153, 153)"
 d="M24.174,20.172 L21.346,22.1000 L14.476,16.131 C12.958,17.298 11.063,17.1000 8.1000,17.1000 C4.029,17.1000 0.000,13.970 0.000,8.1000 C0.000,4.029 4.029,-0.000 8.1000,-0.000 C13.971,-0.000 17.1000,4.029 17.1000,8.1000 C17.1000,10.452 17.648,11.820 17.037,13.034 L24.174,20.172 ZM8.1000,1.1000 C5.134,1.1000 1.1000,5.134 1.1000,8.1000 C1.1000,12.866 5.134,15.1000 8.1000,15.1000 C12.866,15.1000 15.1000,12.866 15.1000,8.1000 C15.1000,5.134 12.866,1.1000 8.1000,1.1000 ZM9.1000,12.1000 L7.1000,12.1000 L7.1000,9.1000 L4.1000,9.1000 L4.1000,7.1000 L7.1000,7.1000 L7.1000,4.1000 L9.1000,4.1000 L9.1000,7.1000 L12.1000,7.1000 L12.1000,9.1000 L9.1000,9.1000 L9.1000,12.1000 Z"/>
</svg>