<svg 
 xmlns="http://www.w3.org/2000/svg"
 xmlns:xlink="http://www.w3.org/1999/xlink"
 width="24px" height="12px">
<path fill-rule="evenodd"  opacity="0.502" fill="rgb(0, 0, 0)"
 d="M23.881,8.290 C23.846,8.491 23.756,8.568 23.575,8.732 C23.486,8.892 23.485,9.389 23.485,9.524 C23.485,10.545 21.867,10.416 21.221,10.481 C21.123,10.491 21.046,10.459 20.993,10.406 C20.939,10.357 20.904,10.283 20.904,10.177 C20.906,9.891 20.912,9.668 20.912,9.583 C20.912,8.168 19.795,7.020 18.417,7.020 C17.796,7.020 16.473,7.150 16.069,7.941 C15.578,8.903 16.069,10.561 16.069,10.561 L6.768,10.561 C6.544,10.563 6.694,9.829 6.730,9.660 C6.727,9.636 6.726,9.610 6.726,9.583 C6.726,8.168 5.610,7.020 4.232,7.020 C2.854,7.020 1.737,8.168 1.737,9.583 L1.737,9.686 C1.736,9.918 1.538,10.013 1.374,9.972 C1.327,9.968 1.278,9.950 1.229,9.915 L0.581,9.451 L0.549,9.424 C0.071,8.966 0.123,8.437 0.123,7.843 C0.123,6.865 0.413,7.063 0.448,6.645 C0.518,5.803 -0.303,4.837 0.124,4.011 C0.175,3.913 0.957,4.427 0.985,4.266 C1.067,3.795 1.068,3.130 1.280,2.037 L1.295,1.967 C1.609,0.419 2.125,0.332 2.748,0.243 C3.082,0.194 4.279,0.142 5.085,0.111 C5.279,0.092 5.472,0.079 5.659,0.071 L5.691,0.069 C7.479,-0.008 14.690,-0.328 14.740,1.392 C16.408,2.192 17.583,3.324 18.065,3.643 L18.126,3.634 C18.815,3.539 19.089,4.135 19.273,4.695 C20.623,4.924 23.528,5.526 23.535,7.142 C23.535,7.179 23.530,7.212 23.547,7.263 C23.685,7.377 23.823,7.541 23.876,7.799 C24.035,7.910 24.037,8.177 23.881,8.290 ZM14.740,9.251 L14.740,7.941 L7.897,7.941 C8.043,8.343 8.076,8.798 8.097,9.251 L14.740,9.251 ZM1.453,5.321 L1.453,6.631 L3.567,6.502 C4.032,6.396 3.765,6.564 4.111,6.631 L4.111,5.321 C4.111,5.189 3.625,5.374 2.782,5.321 L1.453,5.321 ZM4.111,1.392 C3.427,1.462 3.662,0.949 3.188,1.428 C2.820,1.800 2.734,2.256 2.645,2.739 C2.603,2.968 2.554,3.387 2.501,3.902 L5.360,4.076 L5.439,1.392 L4.111,1.392 ZM12.083,1.392 C11.414,1.183 8.221,1.332 6.768,1.392 L5.936,4.111 C7.431,4.202 12.042,3.938 13.412,4.011 L13.864,2.468 C12.929,1.911 13.121,1.716 12.083,1.392 ZM6.768,5.321 C6.494,5.457 5.383,4.949 5.383,5.381 L5.383,6.657 C5.390,6.657 5.395,6.659 5.402,6.659 C5.413,6.649 5.414,6.630 5.439,6.631 L14.740,6.631 L14.740,5.321 C13.203,5.243 8.464,5.423 6.768,5.321 ZM16.069,2.701 C16.069,2.701 14.944,3.557 14.489,3.148 L14.605,4.811 C14.605,4.811 15.803,5.152 15.554,4.293 C15.835,4.139 16.069,4.011 16.069,4.011 L16.069,2.701 ZM21.384,6.631 C21.384,6.631 19.903,5.876 18.727,5.321 C18.504,5.405 16.069,5.321 16.069,5.321 L15.626,8.264 C16.113,7.180 17.186,6.556 18.417,6.428 C19.363,6.330 20.055,6.631 20.055,6.631 C20.055,6.631 21.366,7.941 21.384,7.941 L21.384,6.631 ZM4.232,7.292 C5.463,7.292 6.462,8.317 6.462,9.583 C6.462,10.849 5.463,11.874 4.232,11.874 C2.999,11.874 2.001,10.849 2.001,9.583 C2.001,8.317 2.999,7.292 4.232,7.292 ZM4.232,11.282 C5.145,11.282 5.886,10.521 5.886,9.583 C5.886,8.645 5.145,7.884 4.232,7.884 C3.319,7.884 2.578,8.645 2.578,9.583 C2.578,10.521 3.319,11.282 4.232,11.282 ZM18.417,7.292 C19.649,7.292 20.648,8.317 20.648,9.583 C20.648,10.849 19.649,11.874 18.417,11.874 C17.185,11.874 16.187,10.849 16.187,9.583 C16.187,8.317 17.185,7.292 18.417,7.292 ZM18.417,11.282 C19.330,11.282 20.071,10.521 20.071,9.583 C20.071,8.645 19.331,7.884 18.417,7.884 C17.504,7.884 16.764,8.645 16.764,9.583 C16.764,10.521 17.504,11.282 18.417,11.282 Z"/>
</svg>