<svg 
 xmlns="http://www.w3.org/2000/svg"
 xmlns:xlink="http://www.w3.org/1999/xlink"
 width="16px" height="16px">
<path fill-rule="evenodd"  opacity="0.502" fill="rgb(0, 0, 0)"
 d="M15.675,15.998 L9.493,15.998 L11.149,13.070 L10.355,11.400 C10.359,11.399 10.364,11.399 10.369,11.399 L10.544,11.399 C10.601,11.399 10.656,11.412 10.705,11.438 C12.638,11.907 14.436,12.885 15.908,14.273 C15.973,14.334 16.011,14.419 16.011,14.507 L16.011,15.672 C16.011,15.853 15.860,15.998 15.675,15.998 ZM9.949,9.566 C10.632,8.921 11.091,7.981 11.163,7.041 C11.167,7.041 11.171,7.041 11.174,7.041 C11.515,7.041 11.792,6.757 11.792,6.406 C11.792,6.146 11.642,5.924 11.426,5.825 C11.428,5.819 11.430,5.812 11.432,5.806 C6.434,5.231 5.998,1.925 5.998,1.925 C5.535,4.030 4.601,5.825 4.601,5.825 C4.385,5.924 4.235,6.146 4.235,6.406 C4.235,6.757 4.511,7.041 4.853,7.041 C4.856,7.041 4.860,7.041 4.863,7.041 C4.863,7.041 5.494,8.708 7.471,8.905 C7.555,8.755 7.717,8.652 7.906,8.652 C8.180,8.652 8.403,8.867 8.403,9.134 C8.403,9.400 8.180,9.616 7.906,9.616 C7.699,9.616 7.522,9.494 7.447,9.319 C6.341,9.212 5.621,8.727 5.173,8.253 C5.381,8.736 5.681,9.181 6.051,9.538 L6.051,10.368 C3.657,10.254 2.026,9.198 2.026,9.198 C4.295,7.853 2.347,3.327 4.849,1.211 C7.352,-0.906 8.013,0.466 8.013,0.466 C8.013,0.466 8.676,-0.906 11.178,1.211 C13.681,3.327 11.732,7.853 14.002,9.198 C14.002,9.198 12.359,10.262 9.949,10.370 L9.949,9.566 ZM5.530,11.398 L5.658,11.398 C5.664,11.398 5.670,11.400 5.677,11.400 L4.867,13.106 L6.492,15.998 L0.353,15.998 C0.167,15.998 0.017,15.853 0.017,15.672 L0.017,14.507 C0.017,14.419 0.053,14.335 0.119,14.273 C1.624,12.854 3.469,11.863 5.453,11.407 C5.479,11.401 5.504,11.398 5.530,11.398 Z"/>
</svg>